{
	"asset":{
		"generator":"Khronos glTF Blender I/O v4.4.55",
		"version":"2.0"
	},
	"scene":0,
	"scenes":[
		{
			"name":"Scene",
			"nodes":[
				0,
				1
			]
		}
	],
	"nodes":[
		{
			"mesh":0,
			"name":"Car",
			"scale":[
				0.9033815264701843,
				0.02665107324719429,
				0.13687294721603394
			],
			"translation":[
				0,
				1.0814985036849976,
				1.9062566757202148
			]
		},
		{
			"mesh":1,
			"name":"Wheels",
			"rotation":[
				0,
				0,
				-0.7071068286895752,
				0.7071068286895752
			],
			"scale":[
				0.36496132612228394,
				0.1498374342918396,
				0.36496132612228394
			],
			"translation":[
				1.0245100259780884,
				0.12902185320854187,
				1.2685600519180298
			]
		}
	],
	"materials":[
		{
			"doubleSided":true,
			"name":"Material",
			"pbrMetallicRoughness":{
				"baseColorFactor":[
					0.800000011920929,
					0.800000011920929,
					0.800000011920929,
					1
				],
				"metallicFactor":0,
				"roughnessFactor":0.5
			}
		}
	],
	"meshes":[
		{
			"name":"Cube.004",
			"primitives":[
				{
					"attributes":{
						"POSITION":0,
						"NORMAL":1,
						"TEXCOORD_0":2
					},
					"indices":3
				},
				{
					"attributes":{
						"POSITION":4,
						"NORMAL":5,
						"TEXCOORD_0":6
					},
					"indices":7,
					"material":0
				}
			]
		},
		{
			"name":"Cylinder.011",
			"primitives":[
				{
					"attributes":{
						"POSITION":8,
						"NORMAL":9,
						"TEXCOORD_0":10
					},
					"indices":11
				}
			]
		}
	],
	"accessors":[
		{
			"bufferView":0,
			"componentType":5126,
			"count":225,
			"max":[
				1.2919508218765259,
				1,
				1.1589828729629517
			],
			"min":[
				-1.2919509410858154,
				-42.54062271118164,
				-31.301456451416016
			],
			"type":"VEC3"
		},
		{
			"bufferView":1,
			"componentType":5126,
			"count":225,
			"type":"VEC3"
		},
		{
			"bufferView":2,
			"componentType":5126,
			"count":225,
			"type":"VEC2"
		},
		{
			"bufferView":3,
			"componentType":5123,
			"count":360,
			"type":"SCALAR"
		},
		{
			"bufferView":4,
			"componentType":5126,
			"count":318,
			"max":[
				1.2001572847366333,
				13.917665481567383,
				0.8246660232543945
			],
			"min":[
				-1.2001572847366333,
				-40.08735275268555,
				-31.71980857849121
			],
			"type":"VEC3"
		},
		{
			"bufferView":5,
			"componentType":5126,
			"count":318,
			"type":"VEC3"
		},
		{
			"bufferView":6,
			"componentType":5126,
			"count":318,
			"type":"VEC2"
		},
		{
			"bufferView":7,
			"componentType":5123,
			"count":552,
			"type":"SCALAR"
		},
		{
			"bufferView":8,
			"componentType":5126,
			"count":872,
			"max":[
				1.0000001192092896,
				0.5080833435058594,
				1.0000001192092896
			],
			"min":[
				-0.9999999403953552,
				-14.183036804199219,
				-8.516251564025879
			],
			"type":"VEC3"
		},
		{
			"bufferView":9,
			"componentType":5126,
			"count":872,
			"type":"VEC3"
		},
		{
			"bufferView":10,
			"componentType":5126,
			"count":872,
			"type":"VEC2"
		},
		{
			"bufferView":11,
			"componentType":5123,
			"count":1872,
			"type":"SCALAR"
		}
	],
	"bufferViews":[
		{
			"buffer":0,
			"byteLength":2700,
			"byteOffset":0,
			"target":34962
		},
		{
			"buffer":0,
			"byteLength":2700,
			"byteOffset":2700,
			"target":34962
		},
		{
			"buffer":0,
			"byteLength":1800,
			"byteOffset":5400,
			"target":34962
		},
		{
			"buffer":0,
			"byteLength":720,
			"byteOffset":7200,
			"target":34963
		},
		{
			"buffer":0,
			"byteLength":3816,
			"byteOffset":7920,
			"target":34962
		},
		{
			"buffer":0,
			"byteLength":3816,
			"byteOffset":11736,
			"target":34962
		},
		{
			"buffer":0,
			"byteLength":2544,
			"byteOffset":15552,
			"target":34962
		},
		{
			"buffer":0,
			"byteLength":1104,
			"byteOffset":18096,
			"target":34963
		},
		{
			"buffer":0,
			"byteLength":10464,
			"byteOffset":19200,
			"target":34962
		},
		{
			"buffer":0,
			"byteLength":10464,
			"byteOffset":29664,
			"target":34962
		},
		{
			"buffer":0,
			"byteLength":6976,
			"byteOffset":40128,
			"target":34962
		},
		{
			"buffer":0,
			"byteLength":3744,
			"byteOffset":47104,
			"target":34963
		}
	],
	"buffers":[
		{
			"byteLength":50848,
			"uri":"Car.bin"
		}
	]
}
